<?xml version="1.0" standalone="no"?>
<!DOCTYPE svg PUBLIC "-//W3C//DTD SVG 20010904//EN"
 "http://www.w3.org/TR/2001/REC-SVG-20010904/DTD/svg10.dtd">
<svg version="1.0" xmlns="http://www.w3.org/2000/svg"
 width="960.000000pt" height="960.000000pt" viewBox="0 0 960.000000 960.000000"
 preserveAspectRatio="xMidYMid meet">
<metadata>
Created by potrace 1.11, written by Peter Selinger 2001-2013
</metadata>
<g transform="translate(0.000000,960.000000) scale(0.100000,-0.100000)"
fill="#000000" stroke="none">
<path d="M4249 9521 c-19 -6 -49 -40 -49 -56 0 -8 -4 -15 -9 -15 -5 0 -9 -10
-9 -22 0 -13 -2 -34 -5 -48 -2 -14 -7 -49 -11 -77 -5 -29 -12 -53 -16 -53 -4
0 -6 -9 -3 -20 3 -11 2 -28 -2 -37 -4 -10 -9 -35 -11 -56 -2 -21 -8 -47 -14
-56 -5 -10 -7 -21 -4 -23 2 -3 -1 -29 -7 -57 -6 -29 -12 -59 -13 -67 -1 -7 -5
-16 -8 -20 -4 -3 -4 -12 -1 -20 3 -8 2 -22 -2 -31 -4 -10 -10 -36 -12 -58 -2
-22 -6 -47 -10 -55 -3 -8 -7 -28 -9 -44 -4 -27 -7 -41 -17 -91 -12 -54 -20
-111 -18 -122 1 -7 -2 -13 -8 -13 -5 0 -7 -8 -4 -19 3 -10 0 -21 -5 -25 -5 -3
-8 -19 -6 -36 2 -16 -1 -30 -6 -30 -5 0 -7 -7 -4 -15 4 -8 3 -23 -1 -32 -5
-10 -7 -26 -6 -35 1 -10 -1 -18 -6 -18 -4 0 -9 -16 -10 -35 -3 -65 -5 -85 -12
-85 -3 0 -7 -13 -8 -30 -4 -65 -6 -80 -12 -80 -3 0 -7 -11 -8 -25 -1 -14 -3
-36 -4 -50 -1 -14 -5 -28 -10 -31 -4 -2 -6 -11 -2 -19 3 -8 2 -23 -2 -32 -5
-10 -7 -26 -6 -35 1 -10 -1 -18 -6 -18 -4 0 -9 -12 -10 -27 -3 -46 -13 -117
-20 -133 -3 -8 -5 -25 -4 -37 1 -13 -2 -23 -8 -23 -6 0 -8 -7 -5 -15 3 -8 3
-19 -1 -26 -4 -6 -9 -34 -11 -62 -2 -28 -8 -53 -12 -56 -5 -3 -8 -15 -6 -26 2
-11 1 -27 -3 -35 -7 -18 -12 -44 -14 -82 -1 -16 -5 -28 -9 -28 -4 0 -5 -11 -2
-25 2 -14 0 -25 -5 -25 -6 0 -9 -12 -7 -27 1 -15 0 -32 -4 -37 -7 -13 -13 -43
-12 -73 0 -13 -4 -23 -8 -23 -4 0 -7 -12 -8 -27 0 -26 -5 -58 -19 -123 -3 -14
-8 -47 -11 -75 -4 -27 -9 -52 -13 -55 -3 -3 -6 -14 -5 -25 0 -11 -2 -24 -5
-30 -3 -5 -6 -19 -8 -30 -1 -11 -5 -31 -7 -45 -3 -14 -8 -50 -11 -80 -4 -30
-10 -57 -14 -60 -3 -3 -7 -16 -8 -30 -8 -80 -16 -125 -23 -128 -4 -2 -6 -16
-3 -33 2 -16 1 -29 -4 -29 -7 0 -13 -35 -13 -87 0 -13 -4 -23 -9 -23 -4 0 -6
-11 -3 -25 2 -14 0 -25 -4 -25 -9 0 -13 -28 -14 -82 0 -16 -3 -28 -7 -28 -5 0
-9 -24 -11 -52 -2 -29 -7 -55 -11 -58 -5 -3 -7 -14 -5 -25 2 -10 -1 -24 -5
-30 -11 -14 20 -115 36 -115 7 0 13 -3 13 -7 0 -5 114 -7 252 -7 139 1 268 -2
286 -6 17 -5 32 -5 32 -1 0 10 236 9 245 -1 4 -4 3 -13 -1 -20 -5 -7 -10 -31
-11 -53 -2 -21 -7 -42 -11 -45 -4 -3 -7 -14 -6 -25 0 -11 -2 -24 -5 -30 -7
-12 -12 -44 -11 -72 0 -13 -4 -23 -8 -23 -5 0 -8 -10 -7 -22 1 -13 0 -27 -3
-32 -6 -10 -11 -45 -13 -78 0 -10 -4 -20 -9 -23 -4 -3 -6 -14 -3 -25 3 -11 1
-20 -5 -20 -6 0 -8 -9 -5 -20 3 -12 0 -20 -6 -20 -7 0 -10 -4 -6 -9 6 -11 -17
-141 -25 -141 -3 0 -6 -21 -8 -47 -1 -26 -6 -50 -10 -53 -4 -3 -8 -23 -10 -45
-1 -22 -5 -47 -9 -55 -10 -24 -24 -100 -24 -132 0 -10 -4 -18 -8 -18 -5 0 -6
-11 -3 -25 2 -15 0 -25 -7 -25 -7 0 -10 -3 -7 -8 2 -4 0 -27 -5 -52 -6 -25
-10 -53 -10 -62 0 -10 -4 -20 -9 -23 -5 -3 -7 -12 -3 -20 3 -9 0 -21 -6 -29
-6 -7 -9 -15 -6 -17 2 -3 0 -22 -5 -44 -5 -22 -12 -56 -15 -75 -3 -19 -9 -44
-12 -55 -4 -11 -6 -28 -4 -37 1 -10 -2 -18 -6 -18 -5 0 -9 -10 -9 -23 0 -37
-16 -117 -24 -122 -5 -3 -6 -14 -3 -25 3 -11 1 -20 -3 -20 -5 0 -10 -10 -10
-22 -1 -13 -5 -38 -8 -55 -3 -18 -8 -45 -11 -60 -6 -38 -13 -68 -15 -68 -2 0
-6 -22 -15 -80 -3 -22 -8 -47 -10 -55 -3 -8 -7 -33 -11 -55 -3 -22 -8 -44 -11
-48 -2 -4 -6 -22 -9 -40 -3 -31 -8 -54 -20 -107 -3 -14 -6 -33 -6 -43 1 -9 -3
-17 -8 -17 -5 0 -7 -7 -4 -15 3 -8 2 -19 -2 -26 -4 -7 -9 -24 -10 -38 -3 -28
-11 -66 -14 -66 -3 0 -10 -50 -10 -72 0 -12 -4 -24 -9 -28 -5 -3 -7 -14 -4
-25 3 -11 1 -20 -3 -20 -5 0 -10 -10 -10 -22 -2 -35 -13 -98 -19 -107 -3 -5
-7 -28 -10 -52 -3 -23 -10 -61 -16 -83 -6 -23 -10 -51 -10 -63 0 -12 -4 -25
-9 -28 -5 -3 -7 -12 -3 -20 3 -8 1 -15 -3 -15 -5 0 -10 -10 -10 -22 -1 -13 -4
-36 -7 -53 -3 -16 -8 -50 -12 -75 -4 -25 -10 -47 -14 -50 -10 -8 -9 -100 1
-100 5 0 7 -4 4 -9 -3 -5 1 -11 9 -15 8 -3 15 -12 15 -20 0 -8 13 -16 31 -18
41 -6 65 17 109 107 19 39 39 73 43 76 5 3 8 9 8 13 -2 15 90 208 104 218 5 4
6 8 1 8 -5 0 -2 8 7 18 10 10 14 22 10 25 -3 4 -1 7 6 7 7 0 10 4 6 9 -3 5 2
16 10 25 9 8 16 17 16 18 -1 17 14 48 22 48 6 0 8 2 5 5 -3 3 10 35 28 72 19
36 34 72 34 79 0 8 4 14 10 14 5 0 10 3 9 8 -2 15 14 52 23 52 5 0 7 4 3 9 -3
5 2 16 10 25 9 8 15 18 15 21 -1 10 74 160 85 167 5 4 6 8 2 8 -4 0 -2 10 5
23 6 12 13 29 14 37 2 8 8 16 14 18 5 2 8 7 5 12 -3 5 0 14 7 22 7 7 14 20 16
28 2 8 8 18 14 21 5 3 10 10 11 15 2 21 22 64 30 64 4 0 6 4 2 9 -3 5 2 16 10
25 9 8 16 17 16 18 -1 15 13 48 20 48 5 0 8 3 7 8 -3 12 13 52 21 52 4 0 8 7
8 15 0 18 54 128 66 133 4 2 5 8 1 13 -3 5 0 9 5 9 6 0 10 3 9 8 -1 4 24 61
57 127 33 66 60 126 61 134 2 8 8 17 14 21 7 4 11 10 10 14 -3 10 72 159 83
167 5 3 8 8 8 10 -2 15 13 49 22 49 6 0 7 3 4 6 -7 7 21 64 36 75 5 3 8 9 8
13 -3 15 12 56 20 56 5 0 8 3 7 7 -2 11 24 66 35 74 5 3 9 9 8 12 -1 13 32 82
41 88 5 3 9 8 7 10 -5 9 13 49 23 49 6 0 9 3 5 6 -3 3 2 20 12 37 10 18 21 44
25 60 3 15 11 27 17 27 6 0 7 5 4 10 -3 6 -1 10 5 10 6 0 9 4 5 9 -3 5 1 15 8
23 7 7 14 15 15 18 11 39 26 70 34 70 5 0 7 4 3 9 -3 5 3 17 12 27 10 10 16
18 15 18 -7 2 22 61 33 68 5 4 6 8 2 8 -5 0 -1 10 7 22 9 12 16 30 16 40 0 9
6 23 13 30 7 7 15 18 16 23 7 25 45 101 53 106 5 3 9 8 7 10 -3 7 43 104 53
110 5 3 9 8 8 10 -3 7 24 64 33 70 5 3 8 10 8 15 -2 15 43 114 52 114 4 0 5 5
2 10 -3 6 -1 10 4 10 6 0 10 3 10 8 -3 13 25 72 34 72 4 0 5 5 2 10 -3 6 -1
10 5 10 6 0 9 4 5 9 -3 5 3 17 12 27 10 10 17 19 16 21 -4 8 10 43 18 43 5 0
8 3 7 8 -1 4 3 18 10 32 6 14 16 40 24 58 7 17 16 32 20 32 5 0 7 3 6 8 -3 10
93 206 106 214 6 4 8 8 4 8 -4 0 1 16 12 35 11 20 20 42 20 50 0 8 5 15 10 15
6 0 9 3 8 8 -2 10 53 126 64 133 5 3 9 9 9 13 -1 10 33 80 42 87 5 3 8 8 8 10
-3 11 24 69 32 69 4 0 6 4 2 9 -3 5 3 17 12 27 10 10 16 20 14 23 -4 8 31 91
39 91 8 0 11 19 14 85 2 53 -11 77 -56 99 -16 8 -161 11 -508 10 -267 -1 -489
1 -493 3 -5 3 -2 12 7 21 8 10 14 19 14 22 -2 8 96 205 105 211 5 3 8 8 7 10
-5 11 14 59 23 59 6 0 8 3 4 6 -6 7 31 85 46 95 5 3 9 10 8 15 0 13 42 98 53
105 5 4 6 11 3 16 -4 5 1 21 11 34 9 13 17 30 19 38 1 8 7 17 13 21 7 4 11 9
11 11 -2 14 13 49 21 49 5 0 7 4 3 9 -3 5 1 16 9 24 8 8 12 17 9 21 -4 3 -1 6
6 6 7 0 10 4 6 9 -3 5 0 15 7 23 7 7 14 19 16 27 4 21 96 205 105 212 5 3 8 9
8 13 -1 3 6 22 14 42 8 20 15 40 15 45 0 5 5 9 10 9 6 0 9 4 8 8 -4 10 44 105
57 114 5 4 6 8 1 8 -5 0 -1 9 9 20 10 11 15 20 12 20 -3 0 10 33 29 73 19 39
43 88 52 107 9 19 21 38 25 41 5 3 8 9 8 13 0 3 11 32 26 63 15 32 26 61 25
66 -1 4 3 7 8 7 6 0 9 3 8 8 -4 14 13 52 23 52 6 0 7 5 4 10 -3 6 -1 10 4 10
6 0 10 3 9 8 -2 7 42 103 51 112 3 3 7 12 9 20 2 8 10 22 17 30 7 8 13 17 13
20 -3 14 25 80 33 80 6 0 8 4 4 9 -3 5 2 17 11 25 8 9 13 16 10 16 -3 0 6 21
19 46 14 26 25 55 25 65 0 11 4 19 8 19 4 0 8 9 8 20 0 11 -4 20 -9 20 -4 0
-7 6 -6 13 1 6 -2 21 -6 32 -21 50 16 48 -952 49 -496 1 -908 -1 -914 -3z"/>
<path d="M6878 8379 c-10 -5 -18 -8 -18 -5 0 3 -26 -4 -57 -16 -170 -63 -303
-180 -368 -323 -41 -90 -68 -172 -61 -184 4 -5 2 -12 -3 -16 -6 -3 -9 -48 -7
-108 4 -98 23 -195 48 -240 7 -12 13 -24 13 -27 4 -22 18 -50 26 -50 5 0 9 -8
9 -17 0 -38 126 -165 242 -245 309 -212 629 -554 829 -884 48 -80 161 -298
165 -319 1 -5 20 -53 42 -105 21 -52 56 -144 77 -205 20 -60 40 -117 43 -125
3 -8 6 -20 8 -27 3 -14 23 -82 31 -103 3 -8 7 -26 9 -39 2 -13 6 -31 10 -40 4
-9 8 -25 10 -36 1 -11 10 -49 19 -85 9 -36 17 -72 17 -80 0 -8 5 -37 10 -65
15 -83 24 -155 32 -245 7 -83 4 -545 -4 -545 -3 0 -7 -26 -14 -82 -3 -28 -8
-57 -11 -65 -2 -7 -6 -31 -9 -53 -5 -45 -68 -295 -86 -340 -6 -16 -11 -31 -11
-32 0 -2 -1 -8 -4 -15 -166 -485 -420 -941 -710 -1271 -148 -169 -550 -470
-843 -632 -181 -99 -587 -281 -642 -287 -3 0 -16 -5 -30 -10 -14 -5 -32 -11
-40 -13 -8 -2 -51 -13 -95 -25 -44 -11 -93 -23 -110 -25 -16 -3 -43 -8 -60
-12 -16 -4 -34 -7 -40 -8 -5 -1 -12 -3 -15 -4 -3 -1 -25 -4 -50 -6 -25 -2 -63
-7 -85 -9 -128 -17 -543 -27 -551 -14 -3 4 -26 7 -52 7 -26 1 -63 3 -82 5 -19
3 -57 8 -85 12 -88 11 -138 21 -240 46 -44 11 -89 21 -100 22 -12 1 -25 5 -30
8 -6 3 -40 15 -77 27 -81 24 -182 63 -258 98 -30 14 -116 54 -190 88 -74 34
-153 72 -175 85 -22 12 -65 36 -95 52 -261 145 -531 345 -676 501 -154 164
-387 489 -516 717 -70 122 -199 392 -247 512 -39 100 -106 309 -117 368 -4 19
-17 82 -19 95 -8 32 -16 87 -21 135 -3 30 -8 62 -11 70 -3 8 -7 65 -9 125 -3
61 -7 126 -11 145 -3 19 -5 64 -4 100 4 166 10 296 14 310 3 8 5 31 6 50 0 42
7 102 21 190 6 36 12 79 14 95 3 17 7 37 10 45 3 8 7 31 10 51 3 20 8 42 10
50 3 8 8 25 10 39 24 123 134 427 209 577 61 120 217 369 287 456 115 145 186
224 292 330 71 70 133 127 138 127 4 0 22 13 39 29 18 17 85 66 150 110 124
84 170 129 252 245 47 66 105 177 113 214 1 9 7 25 11 36 30 70 -25 325 -97
445 -69 117 -268 260 -435 315 -64 21 -224 12 -275 -15 -9 -5 -24 -9 -34 -9
-9 0 -58 -19 -108 -43 -70 -34 -123 -70 -231 -161 -204 -172 -434 -385 -538
-500 -50 -56 -94 -103 -97 -106 -3 -3 -51 -63 -107 -135 -190 -246 -299 -419
-407 -648 -35 -73 -70 -139 -78 -147 -27 -28 -147 -285 -188 -405 -62 -178
-155 -514 -145 -524 3 -2 1 -9 -5 -16 -5 -6 -11 -27 -14 -46 -3 -19 -9 -49
-15 -67 -5 -18 -10 -35 -10 -37 0 -5 -11 -67 -18 -100 -16 -81 -35 -197 -38
-240 -3 -27 -9 -72 -13 -100 -9 -64 -9 -779 1 -865 4 -36 7 -72 8 -80 0 -8 5
-40 10 -70 5 -30 11 -77 15 -105 3 -27 9 -54 14 -59 5 -5 6 -14 4 -21 -3 -6 0
-32 6 -56 6 -24 13 -57 15 -74 5 -32 20 -97 42 -185 8 -30 15 -62 17 -70 12
-47 29 -106 34 -115 3 -5 7 -18 8 -30 1 -11 8 -33 14 -50 6 -16 12 -32 12 -35
1 -8 55 -161 82 -233 87 -234 232 -526 368 -745 110 -177 316 -454 434 -582
23 -25 57 -63 75 -84 75 -87 348 -353 463 -450 234 -199 470 -365 691 -485 66
-36 123 -69 126 -74 3 -5 10 -9 15 -9 5 0 56 -22 113 -49 57 -27 105 -49 107
-49 2 0 29 -12 61 -26 31 -15 62 -27 67 -28 6 -1 16 -5 22 -8 32 -20 334 -130
334 -121 0 3 6 1 13 -4 13 -11 69 -31 107 -38 13 -2 45 -12 72 -21 27 -9 52
-13 55 -10 3 3 11 2 17 -4 7 -5 25 -11 41 -14 17 -3 45 -10 64 -16 19 -5 37
-8 39 -5 3 3 10 1 16 -4 10 -8 34 -13 123 -26 11 -2 29 -6 40 -9 19 -6 84 -16
143 -21 19 -2 35 -5 35 -6 0 -3 39 -8 107 -13 37 -2 73 -8 79 -12 13 -8 619
-15 632 -7 4 3 38 6 75 8 103 5 224 15 231 20 4 2 39 7 77 10 38 4 72 9 76 11
3 2 28 7 54 10 27 3 52 8 56 10 4 2 26 7 50 10 24 4 50 10 59 15 9 4 18 6 21
4 2 -3 20 0 39 6 19 5 45 12 59 15 109 22 365 95 395 113 6 3 16 6 23 7 25 4
241 88 362 141 520 229 923 508 1346 928 443 441 723 852 969 1420 32 75 105
263 108 280 2 11 7 27 10 35 22 55 56 164 52 168 -3 3 -1 10 5 16 8 11 58 188
64 231 2 11 8 38 14 60 6 22 13 54 15 70 3 17 10 52 16 79 7 27 9 51 7 54 -3
2 -1 13 4 22 5 10 12 40 14 67 2 26 7 55 10 63 3 8 8 45 10 81 2 37 6 71 9 76
9 14 10 82 10 468 0 343 -3 424 -17 530 -5 36 -12 92 -17 135 -1 8 -6 38 -11
65 -5 28 -11 66 -14 85 -3 19 -12 64 -20 100 -8 36 -17 76 -20 90 -14 71 -56
234 -66 258 -6 15 -12 34 -13 42 -3 26 -37 124 -48 138 -5 6 -7 12 -3 12 6 0
-17 62 -50 137 -9 21 -18 43 -19 49 -5 22 -106 249 -131 293 -13 24 -24 47
-24 52 0 5 -40 89 -89 188 -131 266 -223 401 -510 751 -177 216 -260 300 -515
528 -84 74 -388 298 -456 335 -93 51 -190 78 -293 82 -31 1 -60 5 -64 8 -8 9
-15 8 -35 -4z"/>
</g>
</svg>
